<svg xmlns="http://www.w3.org/2000/svg" width="15" height="15" viewBox="0 0 15 15">
  <defs>
    <style>
      .cls-1 {
        fill: #d5d7d9;
      }

      .cls-1, .cls-2 {
        fill-rule: evenodd;
      }

      .cls-2 {
        fill: #404040;
      }
    </style>
  </defs>
  <path class="cls-1" d="M161,0l13,7V8l-13,7V12l8-4V7l-8-4V0ZM-70,0L-83,7V8l13,7V12l-8-4V7l8-4V0ZM87,0h5V15H87V0ZM79,0h5V15H79V0ZM14,7L1,0V15L14,8V7Zm222,4,8-8,4,4-8,8h-4V11Zm9-9,2-2h2l2,2V4l-2,2Z"/>
  <path id="Shape_4_copy" data-name="Shape 4 copy" class="cls-2" d="M161,0l13,7V8l-13,7V12l8-4V7l-8-4V0ZM-70,0L-83,7V8l13,7V12l-8-4V7l8-4V0ZM87,0h5V15H87V0ZM79,0h5V15H79V0ZM14,7L1,0V15L14,8V7Zm222,4,8-8,4,4-8,8h-4V11Zm9-9,2-2h2l2,2V4l-2,2Z"/>
</svg>
