<?xml version="1.0" encoding="UTF-8" standalone="no"?>
<svg
   xmlns:dc="http://purl.org/dc/elements/1.1/"
   xmlns:cc="http://creativecommons.org/ns#"
   xmlns:rdf="http://www.w3.org/1999/02/22-rdf-syntax-ns#"
   xmlns:svg="http://www.w3.org/2000/svg"
   xmlns="http://www.w3.org/2000/svg"
   xmlns:sodipodi="http://sodipodi.sourceforge.net/DTD/sodipodi-0.dtd"
   xmlns:inkscape="http://www.inkscape.org/namespaces/inkscape"
   width="20"
   height="15"
   viewBox="0 0 20 15"
   version="1.1"
   id="svg7"
   sodipodi:docname="start_act.svg"
   inkscape:version="0.92.5 (2060ec1f9f, 2020-04-08)">
  <metadata
     id="metadata11">
    <rdf:RDF>
      <cc:Work
         rdf:about="">
        <dc:format>image/svg+xml</dc:format>
        <dc:type
           rdf:resource="http://purl.org/dc/dcmitype/StillImage" />
        <dc:title></dc:title>
      </cc:Work>
    </rdf:RDF>
  </metadata>
  <sodipodi:namedview
     pagecolor="#ffffff"
     bordercolor="#666666"
     borderopacity="1"
     objecttolerance="10"
     gridtolerance="10"
     guidetolerance="10"
     inkscape:pageopacity="0"
     inkscape:pageshadow="2"
     inkscape:window-width="1848"
     inkscape:window-height="1016"
     id="namedview9"
     showgrid="false"
     inkscape:zoom="12.421053"
     inkscape:cx="11"
     inkscape:cy="9.5"
     inkscape:window-x="72"
     inkscape:window-y="27"
     inkscape:window-maximized="1"
     inkscape:current-layer="svg7" />
  <defs
     id="defs4">
    <style
       id="style2">
      .cls-1 {
        fill: #404040;
        fill-rule: evenodd;
      }
    </style>
  </defs>
  <path
     style="fill:#404040;fill-rule:evenodd"
     d="m 218.96612,0 13,7 v 1 l -13,7 v -3 l 8,-4 V 7 l -8,-4 z"
     id="path838" />
  <path
     style="fill:#404040;fill-rule:evenodd"
     d="M 18.966096,0 5.966102,7 v 1 l 12.999994,7 v -3 l -8,-4 V 7 l 8,-4 z"
     id="path836" />
  <path
     style="fill:#404040;fill-rule:evenodd"
     d="m 168.96612,0 h 5 v 15 h -5 z"
     id="path834" />
  <path
     style="fill:#404040;fill-rule:evenodd"
     d="m 160.96612,0 h 5 v 15 h -5 z"
     id="path832" />
  <path
     style="fill:#404040;fill-rule:evenodd"
     d="m 125.96612,7 -13,-7 v 15 l 13,-7 z"
     id="path830" />
  <path
     style="fill:#404040;fill-rule:evenodd"
     d="m 322.96612,10 9,-9 4,4 -9,9 h -4 z"
     id="path828" />
  <path
     style="fill:#404040;fill-rule:evenodd"
     d="m 332.96612,0 2,-2 h 2 l 2,2 v 2 l -2,2 z"
     id="path826" />
  <path
     style="fill:#404040;fill-rule:evenodd"
     d="m 267.96612,0 13,7 v 1 l -13,7 v -3 l 8,-4 V 7 l -8,-4 z"
     id="path824" />
  <path
     style="fill:#404040;fill-rule:evenodd"
     d="m 282.96612,0 h 3 v 15 h -3 z"
     id="path820" />
  <path
     style="fill:#404040;fill-rule:evenodd"
     d="M 0.96610164,0 H 3.966102 V 15 H 0.96610164 Z"
     id="Shape_4_copy_2" />
</svg>
